:FULLY-SPECIFIED
:FORCE-ALL-JOINTS-BE-3DOF
:DEGREES
211
root 8.3352 16.5825 -7.86572 7.40752 -0.616825 -4.14971
lfemur -45.6005 3.15918 -17.3491
ltibia 30.8174 0 0
lfoot -14.0872 10.6048 0
ltoes -12.8292 0 0
rfemur 4.5796 2.35503 30.3878
rtibia 21.3959 0 0
rfoot -10.8936 4.63162 0
rtoes -9.04983 0 0
lowerback -5.35576 2.41683 1.9545
upperback -1.08213 3.00778 3.1402
thorax 1.71557 1.5237 2.38518
lowerneck -16.9898 -6.42879 -14.1963
upperneck 15.0066 -8.14649 15.0382
head 8.72024 -3.27205 6.4596
lclavicle -1.02122e-14 -7.70555e-15 0
lhumerus -51.0389 -6.92633 94.9997
lradius 25.6085 0 0
lwrist 5.83777 0 0
lhand -11.956 -24.3118 0
lfingers 7.12502 0 0
lthumb 14.0989 5.18203 0
rclavicle -1.02122e-14 -7.70555e-15 0
rhumerus -36.6943 11.2392 -82.0001
rradius 50.8576 0 0
rwrist -26.5542 0 0
rhand -33.1485 -30.1484 0
rfingers 7.12502 0 0
rthumb -6.35759 -60.0322 0
212
root 8.35649 16.5853 -7.71331 7.44809 -1.01762 -4.09593
lfemur -46.0319 3.39812 -17.5533
ltibia 31.5383 0 0
lfoot -13.981 10.598 0
ltoes -12.4051 0 0
rfemur 4.98848 1.97108 30.2835
rtibia 22.6952 0 0
rfoot -9.75797 4.62021 0
rtoes -9.3071 0 0
lowerback -5.32326 2.49308 1.9191
upperback -1.13016 3.11046 3.08903
thorax 1.63296 1.57711 2.36238
lowerneck -17.104 -6.40535 -14.1699
upperneck 15.0464 -8.10693 15.0165
head 8.74572 -3.24932 6.45381
lclavicle -9.59339e-15 -7.53075e-15 0
lhumerus -51.1515 -6.50774 94.826
lradius 25.2851 0 0
lwrist 5.27136 0 0
lhand -11.8322 -24.3051 0
lfingers 7.12502 0 0
lthumb 14.2182 5.17948 0
rclavicle -9.59339e-15 -7.53075e-15 0
rhumerus -36.8758 11.2507 -82.1704
rradius 50.6454 0 0
rwrist -26.4728 0 0
rhand -33.0857 -30.1378 0
rfingers 7.12502 0 0
rthumb -6.29696 -60.0231 0
213
root 8.37896 16.588 -7.55961 7.48791 -1.40558 -4.03664
lfemur -46.4141 3.63262 -17.7617
ltibia 32.2247 0 0
lfoot -13.8772 10.5845 0
ltoes -11.9787 0 0
rfemur 5.35584 1.60509 30.1593
rtibia 23.9739 0 0
rfoot -8.65805 4.59183 0
rtoes -9.5684 0 0
lowerback -5.29321 2.5628 1.87814
upperback -1.17709 3.20494 3.03792
thorax 1.55388 1.62627 2.3419
lowerneck -17.2175 -6.38112 -14.1431
upperneck 15.0903 -8.06648 14.9933
head 8.77227 -3.22634 6.44762
lclavicle -9.01124e-15 -7.35592e-15 0
lhumerus -51.2347 -6.11672 94.6521
lradius 24.9757 0 0
lwrist 4.72339 0 0
lhand -11.7101 -24.2961 0
lfingers 7.12502 0 0
lthumb 14.3357 5.17942 0
rclavicle -9.01124e-15 -7.35592e-15 0
rhumerus -37.0633 11.2583 -82.3381
rradius 50.4256 0 0
rwrist -26.3875 0 0
rhand -33.0207 -30.1253 0
rfingers 7.12502 0 0
rthumb -6.23412 -60.0123 0
214
root 8.40257 16.5905 -7.40466 7.52697 -1.78082 -3.97205
lfemur -46.7482 3.86264 -17.9742
ltibia 32.8771 0 0
lfoot -13.7756 10.5645 0
ltoes -11.5505 0 0
rfemur 5.68272 1.25676 30.0157
rtibia 25.2317 0 0
rfoot -7.59356 4.54703 0
rtoes -9.83342 0 0
lowerback -5.26556 2.62612 1.8318
upperback -1.22294 3.29139 2.98689
thorax 1.47828 1.67129 2.32366
lowerneck -17.3301 -6.35612 -14.1158
upperneck 15.138 -8.02519 14.9685
head 8.79983 -3.20313 6.44105
lclavicle -8.46502e-15 -7.18118e-15 0
lhumerus -51.2894 -5.75269 94.4782
lradius 24.6801 0 0
lwrist 4.19369 0 0
lhand -11.5899 -24.2847 0
lfingers 7.12502 0 0
lthumb 14.4515 5.18175 0
rclavicle -8.46502e-15 -7.18118e-15 0
rhumerus -37.2562 11.2622 -82.5033
rradius 50.1986 0 0
rwrist -26.2985 0 0
rhand -32.9534 -30.1109 0
rfingers 7.12502 0 0
rthumb -6.16919 -59.9996 0
215
root 8.42725 16.5929 -7.24855 7.56527 -2.14346 -3.90237
lfemur -47.0355 4.08816 -18.1904
ltibia 33.4962 0 0
lfoot -13.6764 10.5383 0
ltoes -11.1209 0 0
rfemur 5.97013 0.925796 29.8536
rtibia 26.4684 0 0
rfoot -6.56417 4.48635 0
rtoes -10.1018 0 0
lowerback -5.24025 2.68322 1.7803
upperback -1.26769 3.37002 2.93599
thorax 1.40608 1.71225 2.30762
lowerneck -17.4419 -6.33041 -14.0881
upperneck 15.1894 -7.98311 14.9423
head 8.82835 -3.17971 6.43412
lclavicle -7.954e-15 -7.00665e-15 0
lhumerus -51.3164 -5.4151 94.3044
lradius 24.3979 0 0
lwrist 3.68206 0 0
lhand -11.4714 -24.2712 0
lfingers 7.12502 0 0
lthumb 14.5656 5.18641 0
rclavicle -7.954e-15 -7.00665e-15 0
rhumerus -37.4544 11.2625 -82.6658
rradius 49.9648 0 0
rwrist -26.2061 0 0
rhand -32.8841 -30.0949 0
rfingers 7.12502 0 0
rthumb -6.10228 -59.9852 0
216
root 8.45295 16.5952 -7.09134 7.6028 -2.49362 -3.8278
lfemur -47.2773 4.30913 -18.4101
ltibia 34.0825 0 0
lfoot -13.5795 10.506 0
ltoes -10.6901 0 0
rfemur 6.21911 0.611902 29.6735
rtibia 27.6836 0 0
rfoot -5.56956 4.41035 0
rtoes -10.3733 0 0
lowerback -5.21723 2.73423 1.72382
upperback -1.31136 3.441 2.88525
thorax 1.33726 1.74926 2.29372
lowerneck -17.5528 -6.30401 -14.0599
upperneck 15.2444 -7.94031 14.9147
head 8.85779 -3.1561 6.42685
lclavicle -7.47746e-15 -6.83246e-15 0
lhumerus -51.3166 -5.10334 94.1309
lradius 24.1291 0 0
lwrist 3.18833 0 0
lhand -11.3549 -24.2556 0
lfingers 7.12502 0 0
lthumb 14.6779 5.19333 0
rclavicle -7.47746e-15 -6.83246e-15 0
rhumerus -37.6576 11.2593 -82.8257
rradius 49.7246 0 0
rwrist -26.1104 0 0
rhand -32.8129 -30.0771 0
rfingers 7.12502 0 0
rthumb -6.0335 -59.9692 0
217
root 8.4796 16.5974 -6.93309 7.63956 -2.83143 -3.74858
lfemur -47.4749 4.52555 -18.6329
ltibia 34.6365 0 0
lfoot -13.4849 10.4679 0
ltoes -10.2586 0 0
rfemur 6.43068 0.314782 29.4763
rtibia 28.8771 0 0
rfoot -4.60941 4.31956 0
rtoes -10.6476 0 0
lowerback -5.19644 2.77932 1.66259
upperback -1.35394 3.50453 2.8347
thorax 1.27174 1.78241 2.2819
lowerneck -17.6627 -6.27699 -14.0314
upperneck 15.3028 -7.89684 14.8857
head 8.88808 -3.13235 6.41925
lclavicle -7.03468e-15 -6.65875e-15 0
lhumerus -51.2909 -4.81685 93.9577
lradius 23.8733 0 0
lwrist 2.71232 0 0
lhand -11.2402 -24.238 0
lfingers 7.12502 0 0
lthumb 14.7883 5.20241 0
rclavicle -7.03468e-15 -6.65875e-15 0
rhumerus -37.8653 11.2527 -82.9829
rradius 49.4784 0 0
rwrist -26.0116 0 0
rhand -32.7398 -30.0577 0
rfingers 7.12502 0 0
rthumb -5.96297 -59.9515 0
218
root 8.50714 16.5995 -6.77387 7.67554 -3.157 -3.6649
lfemur -47.6294 4.73737 -18.8586
ltibia 35.159 0 0
lfoot -13.3926 10.4242 0
ltoes -9.82673 0 0
rfemur 6.60586 0.0341391 29.2626
rtibia 30.0487 0 0
rfoot -3.68338 4.21454 0
rtoes -10.9244 0 0
lowerback -5.17783 2.81864 1.59679
upperback -1.39543 3.56078 2.78438
thorax 1.20949 1.8118 2.2721
lowerneck -17.7715 -6.24937 -14.0026
upperneck 15.3644 -7.85275 14.8556
head 8.91918 -3.10845 6.41133
lclavicle -6.62493e-15 -6.48562e-15 0
lhumerus -51.24 -4.55506 93.7849
lradius 23.6304 0 0
lwrist 2.25384 0 0
lhand -11.1274 -24.2184 0
lfingers 7.12502 0 0
lthumb 14.8969 5.21359 0
rclavicle -6.62493e-15 -6.48562e-15 0
rhumerus -38.0773 11.2428 -83.1374
rradius 49.2266 0 0
rwrist -25.9098 0 0
rhand -32.6651 -30.0368 0
rfingers 7.12502 0 0
rthumb -5.8908 -59.9324 0
219
root 8.53552 16.6014 -6.61374 7.71075 -3.47046 -3.57699
lfemur -47.7421 4.94456 -19.0869
ltibia 35.6504 0 0
lfoot -13.3026 10.3751 0
ltoes -9.39488 0 0
rfemur 6.74569 -0.230323 29.0331
rtibia 31.1979 0 0
rfoot -2.79116 4.09583 0
rtoes -11.2033 0 0
lowerback -5.16135 2.85233 1.52664
upperback -1.43583 3.60995 2.73432
thorax 1.15044 1.83752 2.26426
lowerneck -17.8793 -6.2212 -13.9735
upperneck 15.4291 -7.80811 14.8242
head 8.95104 -3.08445 6.40312
lclavicle -6.24749e-15 -6.31321e-15 0
lhumerus -51.1648 -4.31737 93.6128
lradius 23.4002 0 0
lwrist 1.81272 0 0
lhand -11.0166 -24.197 0
lfingers 7.12502 0 0
lthumb 15.0037 5.22678 0
rclavicle -6.24749e-15 -6.31321e-15 0
rhumerus -38.2933 11.2298 -83.2891
rradius 48.9696 0 0
rwrist -25.8053 0 0
rhand -32.5888 -30.0144 0
rfingers 7.12502 0 0
rthumb -5.81709 -59.9118 0
